<svg xmlns="http://www.w3.org/2000/svg" xmlns:xlink="http://www.w3.org/1999/xlink" width="180" height="300">\n<path d="M 0 0 L 180 0 L 180 300 L 0 300 L 0 0" style="stroke-width:0;stroke:#fff;fill:#fff"/><path d="M 20 66 L 152 66 L 152 225 L 20 225 L 20 66" style="stroke-width:0;stroke:#fff;fill:#fff"/><path d="M 56 66 L 116 66 L 116 225 L 56 225 L 56 66" style="stroke-width:3;stroke:#6ac3cb;fill:#6ac3cb"/><path d="M 20 225 L 152 225" style="stroke-width:0;stroke:#333;fill:none"/><path d="M 20 225 L 20 230" style="stroke-width:0;stroke:#333;fill:none"/><text x="33" y="247" style="stroke-width:0;stroke:none;fill:#333;font-size:12.8px;font-family:'Roboto Medium',sans-serif">category unknown</text><path d="M 152 225 L 152 66" style="stroke-width:0;stroke:#333;fill:none"/><path d="M 152 225 L 157 225" style="stroke-width:0;stroke:#333;fill:none"/><text x="162" y="231" style="stroke-width:0;stroke:none;fill:#333;font-size:12.8px;font-family:'Roboto Medium',sans-serif">0</text><path d="M 152 66 L 157 66" style="stroke-width:0;stroke:#333;fill:none"/><text x="162" y="72" style="stroke-width:0;stroke:none;fill:#333;font-size:12.8px;font-family:'Roboto Medium',sans-serif">1</text><path d="M 20 225 L 152 225" style="stroke-width:0;stroke:none;fill:none"/><text x="31" y="22" style="stroke-width:0;stroke:none;fill:#333;font-size:12.8px;font-family:'Roboto Medium',sans-serif">Models per Category</text></svg>